<?xml version="1.0" encoding="UTF-8" ?>
<!DOCTYPE svg PUBLIC "-//W3C//DTD SVG 1.1//EN" "http://www.w3.org/Graphics/SVG/1.1/DTD/svg11.dtd">
<svg width="241pt" height="204pt" viewBox="0 0 241 204" version="1.1" xmlns="http://www.w3.org/2000/svg">
<g id="#ffffffff">
</g>
<g id="#7abf39ff">
<path fill="#7abf39" opacity="1.00" d=" M 126.03 29.02 C 129.32 25.46 135.55 25.56 138.79 29.14 C 159.96 50.33 181.19 71.47 202.31 92.71 C 205.92 96.23 205.44 102.49 201.66 105.71 C 180.69 126.74 159.69 147.76 138.64 168.71 C 134.86 172.71 127.47 171.97 124.82 167.07 C 122.84 163.73 123.35 158.96 126.28 156.31 C 142.54 140.05 158.82 123.79 175.07 107.51 C 126.03 107.54 77.00 107.50 27.97 107.53 C 24.55 107.67 20.98 105.75 19.62 102.54 C 18.19 99.00 18.88 94.45 22.05 92.07 C 24.49 89.76 28.00 90.24 31.06 90.23 C 79.06 90.25 127.07 90.22 175.07 90.24 C 158.87 73.99 142.61 57.79 126.40 41.54 C 122.95 38.38 122.66 32.35 126.03 29.02 Z" />
</g>
</svg>
