<?xml version="1.0" encoding="UTF-8" ?>
<!DOCTYPE svg PUBLIC "-//W3C//DTD SVG 1.1//EN" "http://www.w3.org/Graphics/SVG/1.1/DTD/svg11.dtd">
<svg width="290pt" height="306pt" viewBox="0 0 341 360" version="1.1" xmlns="http://www.w3.org/2000/svg">
<g id="#ffffffff">
</g>
<g id="#37a4cbff">
<path fill="#37a4cb" opacity="1.00" d=" M 176.37 10.51 C 179.79 9.92 183.95 9.71 186.56 12.44 C 188.72 14.31 189.80 17.15 189.70 19.98 C 189.72 94.34 189.70 168.70 189.71 243.06 C 190.29 248.89 184.72 253.86 179.04 253.38 C 148.35 253.37 117.65 253.38 86.95 253.37 C 83.18 253.55 79.48 251.69 77.63 248.36 C 70.04 235.96 62.47 223.53 55.10 211.01 C 52.92 207.51 53.71 203.21 55.89 199.94 C 93.64 139.35 131.47 78.80 169.19 18.19 C 171.12 15.31 172.87 11.69 176.37 10.51 M 166.79 50.80 C 134.82 102.12 102.76 153.39 70.80 204.72 C 69.38 207.45 72.52 210.02 73.58 212.42 C 78.46 220.25 83.06 228.25 87.88 236.12 C 88.64 237.70 90.19 238.51 91.93 238.32 C 115.62 238.36 139.31 238.31 163.00 238.33 C 166.88 238.37 170.78 238.46 174.64 237.97 C 174.58 229.10 174.62 220.23 174.62 211.36 C 150.07 211.33 125.52 211.32 100.97 211.37 C 97.54 211.37 93.29 210.88 91.57 207.43 C 88.51 202.86 92.34 195.64 97.99 196.26 C 121.32 196.19 144.67 196.25 168.00 196.24 C 170.22 196.20 172.43 195.92 174.63 195.68 C 174.57 143.44 174.63 91.21 174.61 38.97 C 171.61 42.64 169.27 46.77 166.79 50.80 Z" />
<path fill="#37a4cb" opacity="1.00" d=" M 205.36 64.43 C 208.99 62.73 213.53 63.88 216.18 66.80 C 217.81 68.61 218.96 70.79 220.19 72.88 C 245.21 115.13 270.51 157.20 295.56 199.43 C 297.90 203.64 301.70 207.74 300.80 212.94 C 300.75 216.04 298.31 218.25 296.36 220.35 C 286.86 229.87 277.50 239.51 268.15 249.16 C 265.83 251.74 262.61 253.60 259.04 253.39 C 243.02 253.38 227.00 253.35 210.98 253.40 C 205.43 254.12 199.16 249.98 199.34 244.03 C 199.26 187.33 199.35 130.63 199.30 73.94 C 198.87 69.82 201.61 65.93 205.36 64.43 M 214.48 93.81 C 214.20 127.79 214.42 161.77 214.36 195.75 C 228.81 196.95 243.35 195.72 257.82 196.39 C 263.30 196.96 265.52 205.02 261.67 208.72 C 259.81 210.94 256.77 211.44 254.03 211.37 C 240.81 211.33 227.59 211.34 214.36 211.33 C 214.34 220.22 214.37 229.12 214.33 238.01 C 221.86 238.73 229.45 238.14 237.01 238.33 C 243.64 238.16 250.31 238.68 256.92 238.12 C 263.75 233.01 268.92 225.97 275.03 220.03 C 277.90 216.90 281.55 214.44 283.93 210.87 C 283.38 207.42 280.90 204.71 279.27 201.72 C 259.89 169.10 240.28 136.61 221.11 103.88 C 218.81 100.58 217.34 96.70 214.48 93.81 Z" />
</g>
<g id="#feffffff">
</g>
<g id="#37a4ccff">
<path fill="#37a4cc" opacity="1.00" d=" M 103.45 218.54 C 108.09 216.71 113.43 221.00 112.14 225.93 C 111.32 230.85 104.29 232.58 101.09 228.94 C 98.06 225.86 99.37 219.97 103.45 218.54 Z" />
</g>
<g id="#3ba5cbff">
<path fill="#3ba5cb" opacity="1.00" d=" M 126.46 218.55 C 129.59 217.77 134.20 218.27 135.07 222.04 C 136.72 225.77 134.00 230.65 129.83 230.79 C 126.98 231.23 123.93 229.61 122.97 226.84 C 121.70 223.71 123.43 219.90 126.46 218.55 Z" />
</g>
<g id="#39a5ccff">
<path fill="#39a5cc" opacity="1.00" d=" M 149.46 218.56 C 152.46 217.82 156.22 218.19 157.77 221.27 C 160.80 225.55 156.32 232.12 151.19 230.77 C 145.05 230.40 144.24 220.89 149.46 218.56 Z" />
</g>
<g id="#38a4ccff">
<path fill="#38a4cc" opacity="1.00" d=" M 225.50 218.63 C 228.45 217.97 232.42 217.78 234.04 220.92 C 236.52 224.03 234.93 228.91 231.41 230.43 C 228.96 231.15 225.80 231.12 224.10 228.93 C 221.14 226.03 222.47 220.94 225.50 218.63 Z" />
</g>
<g id="#3ca5cbff">
<path fill="#3ca5cb" opacity="1.00" d=" M 249.47 218.56 C 253.76 216.88 259.04 220.19 258.44 225.00 C 258.49 230.54 250.63 232.86 247.19 228.87 C 244.14 225.80 245.56 220.14 249.47 218.56 Z" />
</g>
<g id="#6d6e71ff">
<path fill="#6d6e71" opacity="1.00" d=" M 213.40 271.70 C 219.67 270.79 226.54 271.22 231.68 275.34 C 242.06 282.39 243.41 298.81 234.75 307.74 C 225.92 317.42 208.79 316.31 200.54 306.47 C 196.00 300.86 195.40 292.97 197.18 286.19 C 199.21 278.73 205.82 272.98 213.40 271.70 M 215.41 274.53 C 211.21 276.15 209.03 280.79 208.38 285.00 C 206.96 292.15 207.41 299.88 210.44 306.57 C 212.76 311.68 220.18 313.18 224.18 309.17 C 228.79 304.37 228.74 297.19 228.65 290.97 C 228.68 285.72 227.72 279.99 223.88 276.12 C 221.71 273.86 218.25 273.93 215.41 274.53 Z" />
<path fill="#6d6e71" opacity="1.00" d=" M 16.23 272.44 C 23.83 272.42 31.44 272.39 39.05 272.45 C 45.89 272.51 53.00 275.18 57.36 280.63 C 61.05 285.14 61.98 291.40 61.01 297.02 C 60.03 303.17 55.37 308.28 49.77 310.73 C 44.21 313.18 38.00 313.52 32.00 313.39 C 26.66 313.26 21.28 313.70 15.97 312.96 C 16.58 310.36 19.73 310.54 21.73 309.67 C 22.91 304.18 22.20 298.55 22.37 292.99 C 22.25 288.02 22.67 283.03 22.15 278.08 C 21.64 275.39 18.51 275.23 16.45 274.36 C 16.39 273.88 16.28 272.92 16.23 272.44 M 32.41 275.32 C 32.51 284.90 32.47 294.48 32.42 304.06 C 32.52 306.06 32.10 308.75 34.36 309.74 C 37.60 311.22 41.72 310.55 44.62 308.55 C 48.90 305.07 49.80 299.20 49.64 294.00 C 49.93 288.00 48.77 281.11 43.66 277.28 C 40.55 274.55 36.19 275.35 32.41 275.32 Z" />
<path fill="#6d6e71" opacity="1.00" d=" M 65.24 272.39 C 72.75 272.46 80.25 272.38 87.76 272.45 C 87.69 272.93 87.56 273.89 87.49 274.37 C 85.53 275.11 83.30 275.48 81.73 276.98 C 81.33 286.99 81.57 297.04 81.60 307.05 C 81.63 311.20 86.88 310.92 89.79 310.63 C 93.58 310.30 95.00 306.29 96.33 303.33 C 100.33 293.36 104.47 283.44 108.58 273.52 C 109.50 270.78 112.81 271.99 114.96 271.76 C 120.13 283.51 124.24 295.72 129.63 307.38 C 131.80 312.79 142.55 311.53 141.69 305.03 C 141.75 296.42 141.88 287.79 141.62 279.18 C 141.64 275.95 137.81 275.35 135.51 274.29 C 135.45 273.83 135.32 272.92 135.25 272.46 C 141.53 272.69 148.01 271.79 154.17 272.86 C 157.97 281.38 160.36 290.50 164.33 298.95 C 167.58 290.07 171.42 281.42 174.26 272.39 C 180.10 272.44 185.94 272.39 191.78 272.43 C 191.73 272.93 191.64 273.92 191.60 274.42 C 189.87 275.02 188.15 275.64 186.44 276.30 C 186.50 287.34 186.14 298.39 186.61 309.42 C 188.26 309.91 189.93 310.37 191.60 310.79 C 191.65 311.34 191.74 312.42 191.79 312.96 C 187.23 313.72 182.60 313.27 178.01 313.39 C 175.10 313.31 171.89 313.91 169.38 312.04 C 171.36 311.10 173.48 310.42 175.39 309.32 C 176.78 307.15 176.17 304.43 176.33 302.00 C 176.11 294.54 176.66 287.05 175.98 279.61 C 173.12 282.77 172.48 287.16 170.78 290.95 C 167.77 298.03 165.27 305.31 162.28 312.39 C 161.06 312.48 159.84 312.56 158.62 312.62 C 154.18 301.05 150.65 289.10 145.46 277.83 C 145.46 287.09 145.08 296.38 145.64 305.62 C 145.73 309.71 150.41 310.11 153.04 312.05 C 151.53 312.99 149.81 313.51 148.02 313.38 C 138.01 313.33 127.99 313.34 117.98 313.43 C 116.20 313.57 114.49 313.03 113.04 312.02 C 114.94 311.07 116.91 310.26 118.90 309.50 C 118.36 306.06 117.11 302.72 115.21 299.80 C 110.66 299.14 106.03 299.68 101.44 299.54 C 100.33 302.26 99.05 305.01 98.75 307.97 C 98.62 311.15 105.55 309.90 104.25 313.10 C 93.53 313.80 82.75 313.06 72.01 313.39 C 69.59 313.24 66.71 313.98 64.85 311.98 C 67.14 310.66 71.70 310.77 71.24 307.07 C 71.26 297.39 71.52 287.68 71.12 278.01 C 70.90 275.12 67.41 275.35 65.38 274.52 C 65.35 273.99 65.28 272.92 65.24 272.39 M 108.21 282.84 C 106.41 287.39 104.22 291.81 103.00 296.57 C 106.66 296.65 110.33 296.65 113.99 296.60 C 112.42 291.88 110.85 287.08 108.21 282.84 Z" />
<path fill="#6d6e71" opacity="1.00" d=" M 243.21 272.43 C 248.28 272.53 253.38 272.09 258.42 272.65 C 266.32 280.97 272.57 290.83 280.53 299.12 C 280.60 292.56 280.89 285.97 280.33 279.43 C 279.89 276.07 276.16 275.32 273.52 274.36 C 273.47 273.89 273.36 272.94 273.30 272.47 C 279.14 272.37 284.98 272.42 290.82 272.43 C 290.77 272.92 290.66 273.91 290.61 274.40 C 288.91 275.07 287.07 275.52 285.63 276.69 C 284.44 278.18 284.44 280.18 284.35 281.99 C 284.19 292.43 284.52 302.88 284.21 313.32 C 282.09 313.32 279.35 314.22 277.96 312.04 C 269.74 302.11 261.84 291.91 253.62 281.99 C 253.59 289.30 253.55 296.61 253.63 303.93 C 253.58 306.32 254.81 308.87 257.18 309.71 C 258.41 310.54 261.64 311.00 260.27 313.15 C 255.20 313.52 250.06 313.60 245.00 313.16 C 244.49 312.90 243.47 312.38 242.96 312.11 C 245.04 310.78 247.63 310.10 249.29 308.19 C 250.84 304.67 250.10 300.72 250.25 296.99 C 250.07 291.37 250.82 285.69 249.97 280.10 C 249.43 276.84 246.11 275.60 243.46 274.46 C 243.39 273.96 243.27 272.94 243.21 272.43 Z" />
</g>
<g id="#6f7073ff">
<path fill="#6f7073" opacity="1.00" d=" M 293.30 273.82 C 294.43 271.72 297.04 272.56 298.97 272.37 C 306.81 272.75 314.76 271.67 322.50 273.21 C 330.10 274.59 336.90 280.69 338.32 288.39 C 339.03 293.32 338.92 298.74 336.07 303.04 C 332.99 308.41 327.07 311.43 321.15 312.48 C 314.85 313.85 308.39 313.24 302.00 313.41 C 299.04 313.32 295.79 313.93 293.19 312.11 C 295.38 310.55 300.03 310.58 299.57 306.97 C 299.65 298.29 299.50 289.61 299.62 280.94 C 299.46 279.59 299.89 278.01 299.08 276.83 C 297.36 275.46 295.24 274.77 293.30 273.82 M 309.82 275.61 C 309.56 284.75 309.79 293.89 309.68 303.02 C 309.83 305.39 309.44 308.75 312.02 309.96 C 315.82 311.36 320.57 310.44 323.25 307.27 C 326.59 303.73 326.83 298.58 327.26 294.00 C 327.22 287.95 326.08 281.01 320.89 277.17 C 317.74 274.67 313.52 275.27 309.82 275.61 Z" />
</g>
<g id="#fefefeff">
</g>
<g id="#fdfdfdff">
</g>
<g id="#fcfcfcff">
</g>
<g id="#3ca6cdff">
<path fill="#3ca6cd" opacity="1.00" d=" M 114.41 324.37 C 114.74 324.37 115.38 324.37 115.70 324.37 C 119.07 331.06 121.26 338.27 123.95 345.25 C 124.74 347.71 127.14 348.99 129.02 350.54 C 124.97 350.69 120.91 350.83 116.87 350.46 C 118.11 349.65 119.44 349.01 120.80 348.45 C 120.20 346.13 119.76 343.54 117.90 341.84 C 115.31 341.47 112.65 341.48 110.06 341.84 C 108.73 343.23 108.13 345.12 107.74 346.95 C 108.56 348.39 110.02 349.28 111.20 350.40 C 108.05 350.89 104.85 350.85 101.71 350.33 C 103.53 348.56 105.57 346.85 106.46 344.38 C 109.17 337.74 111.38 330.88 114.41 324.37 M 110.63 340.11 C 112.85 340.21 115.08 340.20 117.31 340.10 C 117.02 336.87 115.60 333.93 113.99 331.18 C 112.35 333.93 111.02 336.90 110.63 340.11 Z" />
</g>
<g id="#3aa5ccff">
<path fill="#3aa5cc" opacity="1.00" d=" M 149.99 324.50 C 154.86 324.48 159.75 324.17 164.60 324.64 C 167.81 324.87 171.11 327.51 170.57 331.01 C 171.05 334.63 167.43 336.43 165.01 338.28 C 167.70 343.19 171.32 347.56 176.13 350.53 C 173.59 350.69 171.04 350.69 168.50 350.56 C 165.32 346.52 163.68 339.95 158.04 338.86 C 157.63 341.83 157.62 344.83 157.85 347.81 C 158.96 348.72 160.07 349.64 161.15 350.59 C 157.42 350.75 153.68 350.71 149.95 350.56 C 151.42 349.26 154.01 348.33 153.65 345.95 C 153.57 339.81 153.93 333.63 153.46 327.51 C 152.41 326.39 151.18 325.47 149.99 324.50 M 158.03 326.09 C 157.53 329.81 157.59 333.57 157.94 337.31 C 159.98 337.23 162.28 337.36 163.94 335.92 C 166.26 334.28 166.14 331.01 165.44 328.58 C 164.03 325.76 160.64 326.30 158.03 326.09 Z" />
<path fill="#3aa5cc" opacity="1.00" d=" M 47.90 324.66 C 50.62 324.52 53.35 324.49 56.08 324.55 C 59.32 330.26 60.18 337.06 63.89 342.51 C 66.88 336.83 68.84 330.69 71.15 324.72 C 73.78 324.49 76.42 324.47 79.06 324.63 C 78.03 326.00 76.21 327.11 76.23 329.03 C 76.09 335.24 76.18 341.46 76.24 347.68 C 77.52 348.62 78.79 349.57 80.05 350.54 C 76.00 350.78 71.95 350.76 67.90 350.55 C 69.43 349.16 72.26 348.46 72.20 346.01 C 72.39 340.57 72.46 335.09 71.94 329.66 C 67.63 336.01 66.89 344.20 62.22 350.33 C 58.77 343.39 57.17 335.67 53.47 328.85 C 53.37 334.99 53.21 341.14 53.63 347.27 C 55.16 348.30 56.67 349.36 58.10 350.53 C 54.38 350.75 50.65 350.74 46.93 350.54 C 48.37 349.33 49.85 348.16 51.33 347.01 C 51.52 341.33 51.60 335.63 51.39 329.96 C 51.43 327.62 49.20 326.29 47.90 324.66 Z" />
</g>
<g id="#3fa6cdff">
<path fill="#3fa6cd" opacity="1.00" d=" M 231.87 324.49 C 234.38 324.42 236.94 324.17 239.43 324.64 C 244.52 330.56 248.33 337.56 253.87 343.11 C 254.53 337.97 254.52 332.73 253.48 327.65 C 251.93 326.68 250.41 325.66 248.95 324.56 C 252.96 324.32 257.03 324.14 261.01 324.96 C 259.46 326.05 257.52 326.76 256.39 328.33 C 255.07 335.90 256.82 343.62 255.70 351.21 C 252.21 349.44 250.52 345.75 248.22 342.80 C 245.19 338.78 242.18 334.75 239.47 330.51 C 239.26 330.60 238.86 330.77 238.66 330.86 C 238.36 336.29 238.43 341.75 238.71 347.18 C 240.23 348.24 241.73 349.34 243.15 350.54 C 239.42 350.77 235.67 350.75 231.93 350.52 C 233.40 349.35 234.97 348.29 236.27 346.92 C 236.80 341.62 236.51 336.27 236.49 330.95 C 236.83 327.86 233.62 326.46 231.87 324.49 Z" />
</g>
<g id="#3da6cdff">
<path fill="#3da6cd" opacity="1.00" d=" M 293.18 325.09 C 293.44 323.64 295.33 324.31 295.52 325.44 C 298.58 331.98 300.61 338.96 303.38 345.63 C 304.25 347.81 306.34 349.08 308.02 350.58 C 304.33 350.72 300.64 350.69 296.96 350.66 C 298.02 349.33 300.35 348.24 299.59 346.22 C 299.13 344.34 298.05 342.16 295.99 341.73 C 293.62 341.44 291.24 341.64 288.87 341.69 C 287.98 343.61 287.32 345.63 286.97 347.72 C 288.36 348.63 289.74 349.55 291.09 350.52 C 287.72 350.77 284.33 350.73 280.96 350.61 C 282.89 348.57 285.01 346.54 285.92 343.80 C 288.29 337.55 290.57 331.25 293.18 325.09 M 293.10 330.88 C 291.59 333.71 290.48 336.76 290.00 339.95 C 292.13 340.10 294.27 340.16 296.41 340.16 C 296.09 336.84 294.99 333.63 293.10 330.88 Z" />
</g>
<g id="#3ba6ccff">
<path fill="#3ba6cc" opacity="1.00" d=" M 197.87 324.65 C 201.27 324.44 204.68 324.47 208.08 324.65 C 207.08 326.02 205.29 327.14 205.31 329.03 C 205.26 335.21 205.19 341.40 205.41 347.58 C 206.67 348.55 207.93 349.54 209.14 350.57 C 205.06 350.78 200.96 350.77 196.88 350.49 C 198.33 349.65 199.80 348.83 201.13 347.82 C 201.68 341.89 201.35 335.89 201.35 329.94 C 201.60 327.53 199.20 326.27 197.87 324.65 Z" />
</g>
<g id="#fcfdfdff">
</g>
<g id="#fcfefeff">
</g>
<g id="#e3e3e3ff">
</g>
</svg>
