<?xml version="1.0" encoding="UTF-8" ?>
<!DOCTYPE svg PUBLIC "-//W3C//DTD SVG 1.1//EN" "http://www.w3.org/Graphics/SVG/1.1/DTD/svg11.dtd">
<svg width="200pt" height="55pt" viewBox="0 0 800 218" version="1.1" xmlns="http://www.w3.org/2000/svg">
<g id="#ffffffff">
</g>
<g id="#49aa49ff">
<path fill="#49aa49" opacity="1.00" d=" M 16.25 16.25 C 49.34 16.24 82.42 16.22 115.51 16.26 C 115.49 77.51 115.51 138.75 115.50 200.00 C 82.41 200.00 49.32 200.01 16.24 200.00 C 16.25 138.75 16.22 77.50 16.25 16.25 Z" />
<path fill="#49aa49" opacity="1.00" d=" M 231.40 25.26 C 248.28 16.04 268.17 15.44 286.92 16.60 C 305.46 18.02 324.99 22.92 338.68 36.26 C 351.45 48.51 356.42 66.69 356.75 83.93 C 356.78 122.62 356.74 161.31 356.76 199.99 C 323.34 200.01 289.92 200.00 256.50 200.00 C 256.50 162.00 256.49 124.01 256.50 86.01 C 256.49 73.90 254.29 61.73 249.43 50.61 C 246.95 45.01 244.45 39.30 240.50 34.56 C 237.76 31.18 234.60 28.18 231.40 25.26 Z" />
<path fill="#49aa49" opacity="1.00" d=" M 464.21 88.79 C 466.41 88.79 468.62 88.74 470.83 88.71 C 475.98 101.51 480.93 114.39 486.07 127.19 C 491.11 114.39 496.18 101.59 501.16 88.77 C 503.35 88.76 505.56 88.75 507.76 88.75 C 507.76 103.58 507.76 118.42 507.76 133.25 C 506.25 133.24 504.74 133.24 503.24 133.25 C 503.17 120.87 503.40 108.47 503.11 96.09 C 497.81 108.33 493.21 120.88 488.20 133.25 C 486.78 133.25 485.36 133.25 483.95 133.25 C 478.85 120.54 473.85 107.79 468.77 95.07 C 468.74 107.80 468.77 120.53 468.76 133.26 C 467.24 133.25 465.74 133.24 464.24 133.25 C 464.22 118.43 464.28 103.61 464.21 88.79 Z" />
<path fill="#49aa49" opacity="1.00" d=" M 525.00 88.75 C 535.27 88.75 545.53 88.74 555.80 88.76 C 555.74 90.01 555.70 91.27 555.69 92.53 C 546.96 92.47 538.24 92.50 529.51 92.52 C 529.50 97.76 529.50 103.00 529.51 108.24 C 537.75 108.25 546.00 108.23 554.24 108.25 C 554.24 109.58 554.24 110.91 554.26 112.25 C 546.01 112.24 537.77 112.28 529.53 112.23 C 529.48 117.98 529.50 123.74 529.50 129.49 C 538.42 129.50 547.33 129.50 556.25 129.50 C 556.25 130.43 556.25 132.31 556.25 133.25 C 545.83 133.25 535.42 133.24 525.00 133.26 C 525.00 118.42 525.00 103.59 525.00 88.75 Z" />
<path fill="#49aa49" opacity="1.00" d=" M 570.49 88.74 C 571.99 88.75 573.49 88.75 574.99 88.76 C 575.02 102.34 574.98 115.92 575.01 129.51 C 583.34 129.49 591.67 129.50 600.00 129.50 C 600.00 130.44 600.00 132.31 600.00 133.25 C 590.16 133.25 580.33 133.24 570.50 133.25 C 570.49 118.42 570.50 103.58 570.49 88.74 Z" />
<path fill="#49aa49" opacity="1.00" d=" M 602.00 88.75 C 613.83 88.75 625.67 88.75 637.50 88.75 C 637.50 89.68 637.51 91.56 637.51 92.49 C 632.34 92.51 627.17 92.49 622.01 92.51 C 621.99 106.09 622.00 119.67 622.00 133.25 C 620.50 133.25 619.00 133.25 617.50 133.26 C 617.48 119.68 617.50 106.09 617.49 92.51 C 612.33 92.50 607.16 92.50 602.00 92.50 C 602.00 91.57 602.00 89.69 602.00 88.75 Z" />
<path fill="#49aa49" opacity="1.00" d=" M 647.99 88.75 C 658.79 88.74 669.58 88.75 680.38 88.75 C 680.21 90.56 680.46 92.59 679.10 94.02 C 669.79 105.84 660.45 117.64 651.15 129.47 C 661.02 129.54 670.90 129.47 680.77 129.51 C 680.77 130.44 680.76 132.31 680.76 133.24 C 669.16 133.25 657.57 133.25 645.97 133.25 C 646.00 131.90 646.02 130.55 646.04 129.21 C 655.73 117.00 665.36 104.74 675.01 92.49 C 666.01 92.51 657.01 92.49 648.01 92.51 C 647.99 91.25 647.99 90.00 647.99 88.75 Z" />
<path fill="#49aa49" opacity="1.00" d=" M 694.50 133.25 C 694.49 118.42 694.49 103.58 694.50 88.75 C 704.84 88.75 715.17 88.74 725.50 88.75 C 725.51 89.68 725.51 91.56 725.51 92.49 C 716.68 92.51 707.84 92.50 699.01 92.50 C 698.99 97.74 699.00 102.99 699.01 108.23 C 707.25 108.25 715.51 108.23 723.76 108.25 C 723.75 109.57 723.75 110.90 723.76 112.24 C 715.51 112.26 707.26 112.25 699.01 112.25 C 699.00 118.00 698.99 123.75 699.01 129.50 C 707.93 129.50 716.86 129.50 725.78 129.50 C 725.72 130.76 725.68 132.02 725.66 133.29 C 715.27 133.20 704.89 133.27 694.50 133.25 Z" />
<path fill="#49aa49" opacity="1.00" d=" M 740.00 88.75 C 747.00 88.76 754.00 88.73 761.00 88.74 C 764.76 88.70 768.79 89.71 771.43 92.56 C 776.66 98.38 774.38 109.56 766.38 111.60 C 769.13 112.49 771.80 114.28 772.54 117.25 C 773.87 122.52 772.99 128.17 775.12 133.29 C 773.40 133.26 771.71 133.23 770.02 133.20 C 769.16 128.64 769.40 123.94 768.35 119.43 C 767.68 116.41 765.25 113.67 761.99 113.64 C 756.17 113.27 750.33 113.62 744.51 113.51 C 744.49 120.09 744.51 126.67 744.50 133.26 C 742.99 133.25 741.49 133.25 740.00 133.25 C 739.99 118.42 740.00 103.59 740.00 88.75 M 744.51 92.50 C 744.49 98.25 744.50 104.00 744.51 109.75 C 750.03 109.66 755.57 109.92 761.09 109.67 C 764.50 109.47 768.03 107.50 769.16 104.13 C 771.05 99.51 768.14 93.28 762.90 92.78 C 756.80 92.12 750.63 92.69 744.51 92.50 Z" />
</g>
<g id="#595a5cff">
<path fill="#595a5c" opacity="1.00" d=" M 136.49 16.26 C 157.93 15.70 180.07 17.27 199.89 26.12 C 211.12 31.06 220.92 39.56 226.43 50.63 C 233.97 65.87 235.40 83.25 235.25 100.00 C 235.24 133.33 235.25 166.66 235.25 200.00 C 202.33 200.00 169.42 200.00 136.50 200.00 C 136.49 138.75 136.51 77.50 136.49 16.26 Z" />
</g>
<g id="#a5a9abff">
<path fill="#a5a9ab" opacity="1.00" d=" M 412.48 35.03 C 412.66 32.56 411.78 29.67 413.51 27.58 C 414.07 50.70 413.59 73.85 413.75 96.99 C 413.75 126.34 413.75 155.70 413.75 185.05 C 413.69 190.43 413.95 195.83 413.52 201.20 C 412.69 200.34 412.41 199.20 412.49 198.04 C 412.50 143.70 412.53 89.37 412.48 35.03 Z" />
<path fill="#a5a9ab" opacity="1.00" d=" M 485.28 47.45 C 485.89 47.46 487.11 47.47 487.73 47.48 C 487.75 50.90 487.76 54.32 487.76 57.74 C 492.34 57.76 496.91 57.76 501.49 57.72 C 501.49 54.31 501.49 50.90 501.51 47.49 C 502.13 47.50 503.38 47.50 504.00 47.50 C 504.00 55.42 504.00 63.33 503.99 71.25 C 503.37 71.25 502.14 71.26 501.52 71.27 C 501.49 67.52 501.48 63.78 501.51 60.04 C 496.92 59.99 492.34 59.98 487.76 60.01 C 487.75 63.76 487.74 67.51 487.75 71.26 C 487.12 71.24 485.87 71.21 485.24 71.20 C 485.26 63.28 485.20 55.37 485.28 47.45 Z" />
<path fill="#a5a9ab" opacity="1.00" d=" M 462.41 47.69 C 468.68 47.22 474.99 47.62 481.28 47.52 C 481.26 48.08 481.23 49.20 481.21 49.76 C 478.47 49.75 475.74 49.76 473.01 49.76 C 472.98 56.96 473.02 64.16 472.98 71.36 C 472.34 71.26 471.07 71.05 470.43 70.95 C 470.55 63.89 470.49 56.83 470.48 49.77 C 467.66 49.77 464.83 49.75 462.01 49.73 C 462.11 49.22 462.31 48.20 462.41 47.69 Z" />
<path fill="#a5a9ab" opacity="1.00" d=" M 510.51 47.51 C 516.01 47.49 521.52 47.49 527.03 47.52 C 527.01 48.08 526.98 49.20 526.96 49.76 C 522.31 49.75 517.66 49.76 513.00 49.76 C 513.00 52.51 513.00 55.25 513.01 58.00 C 517.34 57.99 521.67 58.00 526.00 58.01 C 526.00 58.50 526.00 59.49 526.00 59.99 C 521.67 60.00 517.33 60.01 513.00 60.00 C 513.00 63.08 513.00 66.16 513.01 69.24 C 517.67 69.25 522.32 69.25 526.98 69.24 C 526.99 69.74 527.01 70.74 527.02 71.24 C 521.51 71.26 516.01 71.26 510.51 71.24 C 510.48 63.33 510.49 55.42 510.51 47.51 Z" />
<path fill="#a5a9ab" opacity="1.00" d=" M 467.98 155.98 C 473.53 147.16 487.59 145.86 494.86 153.18 C 497.17 155.38 498.04 158.54 498.95 161.49 C 498.01 161.48 496.11 161.47 495.17 161.46 C 493.28 153.42 483.40 149.42 476.29 153.34 C 467.90 157.83 466.69 169.67 470.44 177.62 C 473.94 185.84 486.29 187.77 492.29 181.28 C 494.81 178.67 495.43 174.98 495.96 171.53 C 491.55 171.50 487.15 171.50 482.76 171.49 C 482.75 170.62 482.75 168.88 482.75 168.01 C 488.24 168.00 493.74 167.99 499.24 168.01 C 499.25 174.59 499.27 181.17 499.22 187.76 C 498.49 187.77 497.03 187.79 496.30 187.79 C 496.18 185.62 496.06 183.44 495.98 181.27 C 490.34 191.15 474.51 190.69 468.36 181.61 C 463.28 174.16 463.19 163.59 467.98 155.98 Z" />
<path fill="#a5a9ab" opacity="1.00" d=" M 509.25 149.25 C 515.53 149.33 521.82 149.07 528.10 149.36 C 532.25 149.51 536.83 151.71 537.98 156.01 C 539.69 161.09 537.34 167.06 532.27 169.11 C 534.28 170.21 536.62 171.42 537.04 173.93 C 538.16 178.50 537.52 183.38 539.32 187.83 C 537.85 187.79 536.38 187.75 534.92 187.73 C 534.25 183.95 534.15 180.09 533.53 176.30 C 533.12 173.54 530.95 170.86 527.97 170.86 C 522.99 170.53 518.00 170.85 513.01 170.76 C 512.98 176.44 513.02 182.11 512.98 187.79 C 511.73 187.77 510.49 187.75 509.26 187.74 C 509.23 174.91 509.24 162.08 509.25 149.25 M 513.01 152.77 C 513.00 157.67 512.99 162.58 513.00 167.49 C 517.63 167.42 522.28 167.72 526.91 167.38 C 529.30 167.23 531.79 166.30 533.24 164.30 C 536.14 160.42 534.12 153.57 528.99 152.96 C 523.68 152.42 518.33 152.90 513.01 152.77 Z" />
<path fill="#a5a9ab" opacity="1.00" d=" M 558.29 149.29 C 564.73 147.41 572.52 148.66 577.07 153.90 C 583.40 161.18 583.66 172.78 578.79 180.89 C 572.43 191.38 554.63 191.06 548.84 180.17 C 542.93 169.88 545.78 153.05 558.29 149.29 M 559.35 152.60 C 549.04 156.40 547.39 170.77 552.73 179.23 C 557.21 186.59 569.10 187.21 574.39 180.44 C 579.47 173.89 579.58 163.87 574.82 157.12 C 571.47 152.27 564.76 150.77 559.35 152.60 Z" />
<path fill="#a5a9ab" opacity="1.00" d=" M 590.25 149.25 C 591.57 149.25 592.89 149.25 594.23 149.24 C 594.32 157.51 594.16 165.79 594.29 174.06 C 594.31 177.82 595.59 182.08 599.23 183.85 C 603.07 185.67 607.85 185.64 611.65 183.71 C 615.10 181.89 616.32 177.68 616.26 174.02 C 616.28 165.76 616.23 157.50 616.25 149.24 C 617.57 149.24 618.90 149.24 620.24 149.24 C 620.21 157.81 620.34 166.38 620.20 174.95 C 620.25 180.38 616.98 185.91 611.64 187.56 C 606.13 189.22 599.44 189.03 594.84 185.21 C 591.29 182.27 590.32 177.42 590.27 173.04 C 590.17 165.11 590.27 157.18 590.25 149.25 Z" />
<path fill="#a5a9ab" opacity="1.00" d=" M 630.43 149.36 C 636.92 149.28 643.45 148.98 649.93 149.48 C 655.17 149.87 659.33 154.74 659.04 159.97 C 659.50 164.97 656.13 170.16 651.02 170.97 C 645.58 171.63 640.07 171.12 634.61 171.18 C 634.41 176.72 634.53 182.27 634.50 187.81 C 633.13 187.74 631.77 187.67 630.43 187.60 C 630.54 174.86 630.54 162.11 630.43 149.36 M 634.52 152.76 C 634.49 157.84 634.49 162.91 634.51 167.99 C 639.86 167.76 645.34 168.65 650.58 167.37 C 656.61 165.41 656.70 155.41 650.70 153.36 C 645.42 152.05 639.90 153.04 634.52 152.76 Z" />
</g>
</svg>
