<?xml version="1.0" encoding="UTF-8" ?>
<!DOCTYPE svg PUBLIC "-//W3C//DTD SVG 1.1//EN" "http://www.w3.org/Graphics/SVG/1.1/DTD/svg11.dtd">
<svg width="646pt" height="220pt" viewBox="0 0 646 220" version="1.1" xmlns="http://www.w3.org/2000/svg">
<g id="#ffffffff">
</g>
<g id="#34abddff">
<path fill="#34abdd" opacity="1.00" d=" M 80.64 40.68 C 86.09 38.17 93.19 38.18 98.15 41.81 C 100.03 43.11 99.64 45.47 99.40 47.40 C 96.90 49.19 91.56 49.48 92.54 53.66 C 91.31 53.78 90.07 53.88 88.84 53.96 C 88.70 53.37 88.41 52.20 88.27 51.62 C 84.71 50.36 80.67 49.92 77.88 47.13 C 76.42 44.61 78.17 41.67 80.64 40.68 Z" />
</g>
<g id="#007ac2ff">
<path fill="#007ac2" opacity="1.00" d=" M 264.04 39.00 C 299.02 39.06 334.01 38.82 368.99 39.29 C 370.58 39.28 372.17 39.39 373.75 39.63 L 372.93 40.62 C 370.14 42.72 366.42 43.63 364.11 46.27 C 363.08 49.83 362.91 53.59 361.77 57.13 C 361.31 57.84 360.77 58.48 360.14 59.04 C 360.98 54.34 360.45 49.25 356.89 45.75 C 357.42 45.67 358.49 45.51 359.03 45.43 C 358.33 44.27 357.36 43.14 355.86 43.32 C 346.58 43.00 337.28 43.29 328.00 43.17 C 324.75 43.21 321.42 42.86 318.29 43.87 C 315.71 45.93 312.19 48.19 312.60 51.97 C 312.56 87.68 312.61 123.39 312.59 159.09 C 312.60 160.75 311.07 161.83 310.16 163.05 C 306.44 166.01 302.25 169.83 297.24 169.68 C 298.68 167.05 301.23 164.98 302.09 162.09 C 302.27 123.31 301.89 84.50 302.28 45.73 C 302.44 44.92 302.61 44.11 302.80 43.30 C 292.86 43.03 282.90 43.29 272.96 43.15 C 270.51 43.28 267.60 42.78 265.73 44.74 C 263.05 47.25 260.16 49.84 258.86 53.39 C 257.88 54.93 256.35 56.06 254.89 57.13 C 257.20 50.75 260.44 44.74 264.04 39.00 Z" />
<path fill="#007ac2" opacity="1.00" d=" M 119.77 47.83 C 132.97 43.20 146.76 38.92 160.92 39.65 C 166.77 40.06 173.61 41.76 176.62 47.34 C 179.61 53.22 177.31 60.10 174.51 65.59 C 168.68 76.48 159.91 85.47 150.71 93.57 C 146.82 97.25 142.31 100.17 138.16 103.54 C 136.04 105.35 133.72 106.89 131.39 108.39 C 131.38 107.04 131.37 105.69 131.37 104.35 C 133.47 102.29 135.76 100.34 137.07 97.65 C 139.20 94.66 142.33 92.47 144.05 89.18 C 141.41 89.05 140.34 91.81 138.86 93.47 C 138.39 93.15 137.46 92.52 137.00 92.20 C 138.40 88.48 142.50 88.31 145.88 87.97 C 152.69 79.98 159.92 70.85 160.39 59.93 C 160.88 53.96 156.24 48.85 150.75 47.25 C 140.65 44.02 129.95 46.33 119.77 47.83 Z" />
<path fill="#007ac2" opacity="1.00" d=" M 374.23 87.25 C 383.25 83.08 394.00 81.83 403.46 85.29 C 412.42 88.54 419.42 96.17 422.69 105.03 C 419.70 104.46 416.81 103.52 413.90 102.68 C 410.50 105.15 408.38 109.48 404.27 111.30 C 392.74 118.15 379.82 122.03 367.25 126.44 C 365.44 126.37 363.44 126.60 361.95 125.38 C 362.98 124.55 364.02 123.73 365.08 122.92 L 365.23 124.02 C 374.89 120.71 384.53 117.21 393.66 112.59 C 398.07 110.18 402.97 107.66 405.23 102.89 C 404.95 102.49 404.39 101.69 404.11 101.29 C 405.34 100.50 407.37 100.41 407.96 98.91 C 407.82 96.39 406.00 94.37 404.04 92.99 C 400.43 90.43 396.40 88.05 391.83 88.02 C 383.00 86.71 373.69 90.15 367.68 96.72 C 364.63 99.93 362.43 103.84 360.66 107.87 C 358.04 113.16 357.40 119.16 357.91 124.97 C 358.33 130.44 357.86 136.73 361.79 141.11 C 364.13 140.17 366.46 139.20 368.77 138.18 L 368.88 138.14 C 377.22 159.26 405.55 168.68 424.97 156.98 C 423.25 158.78 421.58 160.72 419.47 162.07 C 413.66 163.82 408.16 166.71 401.99 167.09 C 395.66 167.93 389.29 166.74 383.18 165.11 C 379.00 162.98 374.68 160.97 371.10 157.87 C 368.35 154.94 365.57 152.02 362.57 149.35 C 359.72 148.45 357.18 151.08 355.23 152.84 C 350.16 144.19 347.19 134.03 348.46 123.96 C 350.29 108.50 360.37 94.28 374.23 87.25 Z" />
<path fill="#007ac2" opacity="1.00" d=" M 512.64 89.76 C 524.86 82.41 540.51 80.95 553.77 86.30 C 564.38 90.44 573.12 99.03 577.48 109.54 C 575.41 110.73 573.09 111.62 571.37 113.32 C 570.77 117.90 572.32 122.40 572.40 126.97 C 572.45 130.41 572.32 133.85 572.19 137.29 C 569.22 148.56 563.08 159.79 552.42 165.38 C 542.88 170.90 531.05 170.19 521.18 165.94 C 517.79 163.57 514.14 161.57 511.02 158.85 C 508.35 155.81 505.80 152.44 501.98 150.79 C 500.54 152.10 499.16 153.45 497.81 154.84 C 490.83 145.57 488.12 133.36 490.15 121.97 C 492.38 108.59 500.98 96.59 512.64 89.76 M 514.75 92.74 C 508.25 97.34 503.14 104.13 501.01 111.84 C 499.53 113.49 499.26 115.78 498.87 117.87 C 496.60 124.58 498.25 131.88 499.46 138.67 C 499.92 141.62 502.03 143.85 503.87 146.05 C 505.79 145.10 507.76 144.20 509.49 142.90 C 513.63 151.96 520.63 160.20 530.10 163.87 C 536.61 166.48 544.37 166.11 550.34 162.31 C 557.61 157.83 561.75 149.62 563.24 141.43 C 565.57 128.21 561.94 114.13 553.86 103.46 C 555.31 102.32 556.69 101.09 558.01 99.79 C 554.35 94.32 548.52 89.87 541.90 89.01 C 532.96 85.98 522.48 87.19 514.75 92.74 Z" />
<path fill="#007ac2" opacity="1.00" d=" M 606.10 86.14 C 616.33 81.14 628.56 81.71 638.88 86.15 C 641.05 87.20 643.60 87.84 645.29 89.67 C 641.56 89.98 637.65 92.27 633.99 91.11 C 624.45 84.06 609.96 85.26 601.57 93.56 C 597.97 97.68 594.63 104.36 597.89 109.48 C 599.29 108.65 600.59 107.64 601.62 106.36 L 601.75 106.22 C 602.93 112.96 609.73 116.13 615.34 118.61 C 624.48 122.78 635.25 125.63 641.28 134.34 C 639.21 135.70 637.21 137.22 634.92 138.19 C 632.09 137.59 630.03 135.19 627.52 133.84 C 620.45 129.57 612.24 127.76 605.17 123.55 C 602.60 122.05 600.33 119.43 597.18 119.35 C 595.46 120.52 594.10 122.11 592.65 123.57 C 589.49 119.82 587.50 114.91 588.11 109.96 C 589.44 99.60 596.61 90.38 606.10 86.14 Z" />
<path fill="#007ac2" opacity="1.00" d=" M 463.56 94.55 C 471.32 89.86 479.74 85.00 489.08 85.06 C 490.70 85.34 493.17 84.98 494.01 86.77 L 493.56 87.01 C 490.55 88.46 487.95 90.61 485.06 92.26 C 482.04 93.10 478.77 91.86 475.76 92.85 C 468.27 95.45 461.75 100.04 455.21 104.37 C 453.19 104.13 451.20 103.74 449.27 103.16 C 450.84 101.67 452.70 100.54 454.78 99.91 C 458.07 98.80 460.54 96.19 463.56 94.55 Z" />
<path fill="#007ac2" opacity="1.00" d=" M 432.03 87.92 C 441.79 87.59 451.54 86.67 461.31 86.93 C 460.80 87.72 460.19 88.37 459.47 88.87 C 455.67 89.78 452.53 92.19 449.63 94.68 C 448.43 95.47 448.03 96.84 448.13 98.21 C 449.10 101.82 448.24 105.42 447.77 109.01 C 447.90 123.33 447.73 137.67 447.83 152.00 C 447.70 155.34 449.22 159.01 447.28 162.06 C 443.15 164.50 439.42 169.08 434.26 168.69 C 436.84 165.28 439.50 161.41 439.26 156.92 C 439.11 136.58 439.50 116.22 439.07 95.88 C 439.68 95.00 440.32 94.13 440.96 93.27 C 437.17 91.38 432.38 89.78 428.45 92.20 C 427.85 92.29 426.66 92.47 426.06 92.56 C 427.66 90.70 429.24 87.92 432.03 87.92 Z" />
<path fill="#007ac2" opacity="1.00" d=" M 630.34 146.71 C 631.88 146.12 633.37 145.38 634.85 144.61 C 635.62 145.41 636.41 146.20 637.20 147.00 C 637.26 149.07 637.27 151.14 637.20 153.21 C 635.16 158.63 631.30 163.53 625.99 166.02 C 615.20 171.30 601.92 170.12 591.60 164.29 C 588.39 162.27 584.81 165.18 581.54 165.74 C 581.12 165.56 580.27 165.19 579.85 165.01 C 583.63 159.79 588.02 155.01 592.88 150.78 C 593.77 149.33 596.49 151.17 595.45 152.49 C 594.29 154.50 592.79 157.32 594.71 159.37 C 600.21 164.70 608.47 166.32 615.88 165.43 C 622.13 164.67 628.77 161.27 630.90 154.96 C 632.06 152.25 631.20 149.35 630.34 146.71 Z" />
<path fill="#007ac2" opacity="1.00" d=" M 450.36 160.94 C 451.92 159.97 453.52 159.05 455.13 158.15 C 459.03 164.04 466.66 164.90 473.12 164.75 L 471.70 166.19 C 464.62 168.93 457.04 166.07 450.44 163.30 C 450.42 162.71 450.38 161.53 450.36 160.94 Z" />
<path fill="#007ac2" opacity="1.00" d=" M 317.03 162.74 C 318.36 161.66 319.93 161.00 321.55 160.50 C 328.06 165.36 336.80 164.44 344.45 164.22 C 343.82 164.99 343.06 165.57 342.19 165.95 C 334.29 168.73 325.63 167.96 317.86 165.15 C 317.65 164.55 317.24 163.34 317.03 162.74 Z" />
</g>
<g id="#004a75ff">
<path fill="#004a75" opacity="1.00" d=" M 364.11 46.27 C 366.42 43.63 370.14 42.72 372.93 40.62 C 370.29 46.76 366.21 52.18 361.77 57.13 C 362.91 53.59 363.08 49.83 364.11 46.27 Z" />
</g>
<g id="#004b77ff">
<path fill="#004b77" opacity="1.00" d=" M 265.73 44.74 C 267.60 42.78 270.51 43.28 272.96 43.15 C 282.90 43.29 292.86 43.03 302.80 43.30 C 302.61 44.11 302.44 44.92 302.28 45.73 C 291.86 45.85 281.43 45.59 271.03 45.86 C 266.56 47.63 262.69 50.54 258.86 53.39 C 260.16 49.84 263.05 47.25 265.73 44.74 Z" />
<path fill="#004b77" opacity="1.00" d=" M 318.29 43.87 C 321.42 42.86 324.75 43.21 328.00 43.17 C 337.28 43.29 346.58 43.00 355.86 43.32 C 357.36 43.14 358.33 44.27 359.03 45.43 C 358.49 45.51 357.42 45.67 356.89 45.75 C 345.14 45.78 333.38 45.70 321.63 45.79 C 320.09 45.98 318.91 45.31 318.29 43.87 Z" />
</g>
<g id="#005b91ff">
<path fill="#005b91" opacity="1.00" d=" M 312.60 51.97 C 312.19 48.19 315.71 45.93 318.29 43.87 C 318.91 45.31 320.09 45.98 321.63 45.79 C 321.57 84.03 321.73 122.27 321.55 160.50 C 319.93 161.00 318.36 161.66 317.03 162.74 C 317.24 163.34 317.65 164.55 317.86 165.15 C 316.15 164.36 314.57 163.33 313.02 162.28 C 312.06 162.52 311.10 162.77 310.16 163.05 C 311.07 161.83 312.60 160.75 312.59 159.09 C 312.61 123.39 312.56 87.68 312.60 51.97 Z" />
<path fill="#005b91" opacity="1.00" d=" M 448.13 98.21 C 450.48 98.74 452.90 98.73 455.22 98.04 C 455.11 98.50 454.89 99.44 454.78 99.91 C 452.70 100.54 450.84 101.67 449.27 103.16 C 451.20 103.74 453.19 104.13 455.21 104.37 C 453.18 104.77 451.13 105.05 449.09 105.34 C 449.10 106.47 449.08 107.60 449.03 108.73 C 450.99 109.13 452.96 109.52 454.95 109.87 C 455.37 125.95 455.00 142.06 455.13 158.15 C 453.52 159.05 451.92 159.97 450.36 160.94 C 450.38 161.53 450.42 162.71 450.44 163.30 C 449.39 162.88 448.33 162.47 447.28 162.06 C 449.22 159.01 447.70 155.34 447.83 152.00 C 447.73 137.67 447.90 123.33 447.77 109.01 C 448.24 105.42 449.10 101.82 448.13 98.21 Z" />
</g>
<g id="#0657a8ff">
<path fill="#0657a8" opacity="1.00" d=" M 77.88 47.13 C 80.67 49.92 84.71 50.36 88.27 51.62 C 88.41 52.20 88.70 53.37 88.84 53.96 C 84.40 53.97 78.20 52.57 77.88 47.13 Z" />
<path fill="#0657a8" opacity="1.00" d=" M 61.60 51.98 C 64.98 55.50 63.05 60.40 60.13 63.50 C 59.29 62.67 58.46 61.84 57.62 61.01 L 58.44 60.13 C 60.50 57.99 62.00 55.01 61.60 51.98 Z" />
<path fill="#0657a8" opacity="1.00" d=" M 124.34 68.67 C 121.18 65.70 117.06 60.23 120.74 56.17 L 121.23 58.03 C 121.84 61.05 123.83 63.48 125.42 66.03 C 125.15 66.69 124.61 68.01 124.34 68.67 Z" />
<path fill="#0657a8" opacity="1.00" d=" M 48.73 66.52 C 50.93 65.96 53.02 65.03 54.88 63.72 C 55.33 64.76 55.79 65.80 56.24 66.85 C 54.00 67.85 51.59 69.24 49.04 68.59 C 47.61 68.02 46.43 66.98 45.12 66.19 C 46.30 66.73 47.50 66.84 48.73 66.52 Z" />
<path fill="#0657a8" opacity="1.00" d=" M 127.48 70.88 C 129.57 69.24 133.38 69.08 134.66 71.76 C 132.26 72.90 129.67 72.05 127.48 70.88 Z" />
<path fill="#0657a8" opacity="1.00" d=" M 62.02 75.90 C 64.89 78.71 66.72 83.38 64.87 87.18 C 64.59 86.82 64.04 86.12 63.76 85.76 C 64.42 82.34 63.36 79.02 62.02 75.90 Z" />
<path fill="#0657a8" opacity="1.00" d=" M 39.38 123.09 C 43.66 120.62 47.88 124.26 50.60 127.32 C 50.64 127.86 50.71 128.94 50.74 129.48 C 49.99 129.53 49.24 129.58 48.49 129.65 C 45.83 126.97 42.83 124.66 39.38 123.09 Z" />
</g>
<g id="#1566b1ff">
<path fill="#1566b1" opacity="1.00" d=" M 92.54 53.66 C 91.56 49.48 96.90 49.19 99.40 47.40 C 99.37 51.17 95.69 52.94 92.54 53.66 Z" />
</g>
<g id="#40bde9ff">
<path fill="#40bde9" opacity="1.00" d=" M 44.45 58.55 C 46.93 54.21 51.09 50.54 56.05 49.44 C 58.17 48.87 60.89 49.77 61.60 51.98 C 62.00 55.01 60.50 57.99 58.44 60.13 C 54.22 60.20 51.52 63.88 48.73 66.52 C 47.50 66.84 46.30 66.73 45.12 66.19 C 42.47 64.48 43.14 60.90 44.45 58.55 Z" />
</g>
<g id="#34addfff">
<path fill="#34addf" opacity="1.00" d=" M 92.43 57.97 C 95.69 52.41 103.25 50.37 108.99 53.13 C 114.30 55.39 117.92 61.41 116.76 67.17 C 115.19 74.45 107.24 81.14 99.66 77.82 C 102.37 76.84 105.24 76.54 108.10 76.41 C 106.19 76.08 104.28 75.77 102.37 75.48 C 100.32 68.95 96.31 63.48 92.43 57.97 Z" />
</g>
<g id="#258ecbff">
<path fill="#258ecb" opacity="1.00" d=" M 121.23 58.03 C 120.61 55.55 122.19 52.82 124.91 52.80 C 129.10 52.83 132.73 55.53 135.45 58.51 C 137.69 61.10 139.78 64.50 138.97 68.07 C 138.10 69.83 136.12 70.59 134.66 71.76 C 133.38 69.08 129.57 69.24 127.48 70.88 L 127.32 70.96 C 126.31 70.23 125.30 69.50 124.30 68.77 L 124.34 68.67 C 124.61 68.01 125.15 66.69 125.42 66.03 C 123.83 63.48 121.84 61.05 121.23 58.03 Z" />
</g>
<g id="#41c0ebff">
<path fill="#41c0eb" opacity="1.00" d=" M 91.12 67.60 C 90.67 64.35 90.84 60.91 92.43 57.97 C 96.31 63.48 100.32 68.95 102.37 75.48 C 104.28 75.77 106.19 76.08 108.10 76.41 C 105.24 76.54 102.37 76.84 99.66 77.82 C 98.87 77.73 98.14 77.45 97.47 76.97 C 97.47 75.50 96.04 74.81 95.22 73.82 C 93.34 72.13 92.19 69.85 91.12 67.60 Z" />
</g>
<g id="#5ac1e9ff">
<path fill="#5ac1e9" opacity="1.00" d=" M 48.73 66.52 C 51.52 63.88 54.22 60.20 58.44 60.13 L 57.62 61.01 C 56.72 61.93 55.82 62.84 54.88 63.72 C 53.02 65.03 50.93 65.96 48.73 66.52 Z" />
</g>
<g id="#3296ceff">
<path fill="#3296ce" opacity="1.00" d=" M 54.88 63.72 C 55.82 62.84 56.72 61.93 57.62 61.01 C 58.46 61.84 59.29 62.67 60.13 63.50 C 58.86 64.65 57.57 65.76 56.24 66.85 C 55.79 65.80 55.33 64.76 54.88 63.72 Z" />
</g>
<g id="#0b5baaff">
<path fill="#0b5baa" opacity="1.00" d=" M 91.12 67.60 C 92.19 69.85 93.34 72.13 95.22 73.82 C 96.04 74.81 97.47 75.50 97.47 76.97 C 94.14 74.98 91.21 71.66 91.12 67.60 Z" />
<path fill="#0b5baa" opacity="1.00" d=" M 35.47 87.81 C 40.98 88.01 41.88 94.48 42.02 98.78 C 40.96 98.55 39.90 98.33 38.84 98.10 C 38.24 94.52 37.48 90.91 35.47 87.81 Z" />
<path fill="#0b5baa" opacity="1.00" d=" M 111.25 109.79 C 110.78 107.03 111.01 104.13 112.13 101.55 C 112.83 104.33 111.72 107.07 111.25 109.79 Z" />
<path fill="#0b5baa" opacity="1.00" d=" M 63.32 117.56 C 62.61 117.01 61.91 116.47 61.21 115.91 C 64.46 115.92 67.97 115.56 70.94 117.19 C 75.12 119.16 77.60 123.55 78.15 128.03 C 78.70 127.79 79.82 127.33 80.38 127.10 C 79.48 127.86 78.52 128.56 77.38 128.91 C 76.78 126.60 76.42 124.14 75.16 122.06 C 73.03 119.80 70.10 118.54 67.27 117.38 C 65.95 117.39 64.63 117.45 63.32 117.56 Z" />
</g>
<g id="#80d1f1ff">
<path fill="#80d1f1" opacity="1.00" d=" M 45.83 75.41 C 48.47 72.30 53.24 71.84 57.05 72.79 C 51.40 78.84 52.27 88.71 57.89 94.47 C 56.23 95.53 54.37 96.25 52.48 96.81 C 51.09 96.87 49.71 96.58 48.34 96.40 C 47.37 93.23 45.95 90.17 45.47 86.87 C 45.11 83.05 45.52 79.22 45.83 75.41 Z" />
</g>
<g id="#a8ddf5ff">
<path fill="#a8ddf5" opacity="1.00" d=" M 57.05 72.79 C 57.66 73.09 58.87 73.69 59.48 73.99 C 56.95 79.45 55.12 87.60 61.00 91.59 C 60.00 92.59 58.95 93.54 57.89 94.47 C 52.27 88.71 51.40 78.84 57.05 72.79 Z" />
</g>
<g id="#c1e6f8ff">
<path fill="#c1e6f8" opacity="1.00" d=" M 59.48 73.99 C 60.32 74.62 61.59 74.87 62.02 75.90 C 63.36 79.02 64.42 82.34 63.76 85.76 C 63.24 87.87 62.46 89.94 61.00 91.59 C 55.12 87.60 56.95 79.45 59.48 73.99 Z" />
</g>
<g id="#b1e1f6ff">
<path fill="#b1e1f6" opacity="1.00" d=" M 77.90 76.77 C 79.44 75.70 81.22 75.15 83.04 74.81 C 85.06 78.94 86.24 83.73 84.36 88.15 C 82.89 93.72 77.57 96.69 72.63 98.74 L 72.20 98.94 C 71.57 97.50 70.97 96.05 70.40 94.59 C 73.09 91.89 77.36 90.73 78.85 86.92 C 80.60 83.61 79.32 79.92 77.90 76.77 Z" />
</g>
<g id="#86d3f2ff">
<path fill="#86d3f2" opacity="1.00" d=" M 83.04 74.81 C 86.29 74.61 89.57 74.91 92.59 76.19 L 92.59 76.47 C 92.34 81.43 93.52 86.68 91.15 91.31 C 89.28 96.54 85.48 100.89 80.45 103.28 C 80.51 103.72 80.65 104.61 80.71 105.06 C 77.43 103.87 74.42 101.80 72.63 98.74 C 77.57 96.69 82.89 93.72 84.36 88.15 C 86.24 83.73 85.06 78.94 83.04 74.81 Z" />
</g>
<g id="#4fc6edff">
<path fill="#4fc6ed" opacity="1.00" d=" M 48.34 96.40 C 39.04 93.91 38.63 80.50 45.83 75.41 C 45.52 79.22 45.11 83.05 45.47 86.87 C 45.95 90.17 47.37 93.23 48.34 96.40 Z" />
</g>
<g id="#d5eefbff">
<path fill="#d5eefb" opacity="1.00" d=" M 70.91 85.93 C 72.75 82.60 73.72 77.93 77.90 76.77 C 79.32 79.92 80.60 83.61 78.85 86.92 C 77.36 90.73 73.09 91.89 70.40 94.59 L 70.06 94.88 C 69.75 91.89 69.32 88.65 70.91 85.93 Z" />
</g>
<g id="#5fc8eeff">
<path fill="#5fc8ee" opacity="1.00" d=" M 91.15 91.31 C 93.52 86.68 92.34 81.43 92.59 76.47 C 94.05 77.26 95.45 78.16 96.77 79.18 L 96.70 79.51 C 95.63 84.46 95.67 89.72 93.29 94.32 C 91.27 98.93 87.35 102.21 83.73 105.54 C 82.97 105.42 81.47 105.18 80.71 105.06 C 80.65 104.61 80.51 103.72 80.45 103.28 C 85.48 100.89 89.28 96.54 91.15 91.31 Z" />
</g>
<g id="#41c1ebff">
<path fill="#41c1eb" opacity="1.00" d=" M 93.29 94.32 C 95.67 89.72 95.63 84.46 96.70 79.51 C 102.02 84.45 102.59 93.39 98.25 99.14 C 95.02 103.71 89.25 106.10 83.73 105.54 C 87.35 102.21 91.27 98.93 93.29 94.32 Z" />
</g>
<g id="#6bba48ff">
<path fill="#6bba48" opacity="1.00" d=" M 257.43 85.47 C 264.85 85.25 272.30 85.61 279.73 85.58 C 280.49 86.51 279.66 87.21 278.81 87.59 C 274.46 88.36 270.64 90.78 266.67 92.58 C 265.94 96.34 264.48 99.98 261.70 102.70 C 256.14 108.53 251.12 114.86 245.39 120.53 C 244.21 121.72 243.02 123.02 242.73 124.73 C 243.66 124.64 244.59 124.54 245.52 124.45 C 256.72 140.22 269.11 155.09 281.48 169.94 C 275.77 169.27 270.70 166.16 266.11 162.88 C 259.97 156.04 252.72 150.22 247.19 142.84 C 244.34 139.12 240.78 135.78 239.33 131.19 C 237.07 130.65 235.38 132.01 234.08 133.69 C 227.28 140.03 221.50 147.34 214.95 153.93 C 213.25 155.77 210.75 157.69 211.40 160.54 C 212.82 161.44 213.65 160.20 214.45 159.20 C 214.12 160.93 214.49 162.94 216.12 163.91 C 219.61 166.09 223.90 166.03 227.86 166.26 C 226.90 167.14 225.92 168.08 224.67 168.55 C 219.11 168.66 213.81 166.94 209.07 164.13 C 204.69 165.79 200.31 167.60 196.42 170.25 C 195.54 170.36 193.78 170.58 192.90 170.69 C 204.45 158.33 216.43 146.36 227.92 133.93 C 228.69 133.25 229.13 132.41 229.25 131.40 C 231.46 130.30 233.65 129.15 235.77 127.88 C 231.50 120.12 225.66 113.36 221.29 105.65 C 219.79 102.81 217.20 100.40 216.93 97.04 C 219.98 98.44 221.22 101.76 223.07 104.32 C 225.33 103.43 227.15 101.83 228.85 100.14 L 228.93 100.07 C 232.89 106.49 237.28 112.63 241.40 118.96 C 246.90 113.60 251.76 107.59 256.92 101.89 C 258.67 99.70 261.30 97.88 261.47 94.84 C 262.18 93.90 262.98 93.03 263.76 92.14 C 259.68 88.44 253.86 91.12 249.60 93.07 C 248.95 93.19 247.64 93.43 246.98 93.55 C 249.84 90.21 253.90 88.07 257.43 85.47 Z" />
</g>
<g id="#006dadff">
<path fill="#006dad" opacity="1.00" d=" M 61.00 91.59 C 62.46 89.94 63.24 87.87 63.76 85.76 C 64.04 86.12 64.59 86.82 64.87 87.18 C 63.89 92.83 58.30 97.39 52.48 96.81 C 54.37 96.25 56.23 95.53 57.89 94.47 C 58.95 93.54 60.00 92.59 61.00 91.59 Z" />
<path fill="#006dad" opacity="1.00" d=" M 355.23 152.84 C 357.18 151.08 359.72 148.45 362.57 149.35 C 365.57 152.02 368.35 154.94 371.10 157.87 C 369.84 157.62 368.58 157.33 367.30 157.38 C 365.46 158.62 364.15 160.45 362.71 162.09 C 359.83 159.34 357.37 156.19 355.23 152.84 Z" />
</g>
<g id="#6cbb48ff">
<path fill="#6cbb48" opacity="1.00" d=" M 200.54 87.59 C 201.92 86.82 203.31 85.77 205.00 85.99 C 212.03 85.93 219.05 86.15 226.08 86.26 C 225.91 86.62 225.55 87.35 225.38 87.72 C 221.73 88.56 219.71 91.88 217.77 94.77 C 215.44 94.99 213.32 94.00 211.26 93.08 C 206.28 90.69 200.41 90.33 195.36 92.74 C 194.55 92.78 192.93 92.85 192.12 92.89 C 194.70 90.78 197.72 89.33 200.54 87.59 Z" />
</g>
<g id="#406d2aff">
<path fill="#406d2a" opacity="1.00" d=" M 266.67 92.58 C 270.64 90.78 274.46 88.36 278.81 87.59 C 267.83 99.98 256.63 112.18 245.52 124.45 C 244.59 124.54 243.66 124.64 242.73 124.73 C 243.02 123.02 244.21 121.72 245.39 120.53 C 251.12 114.86 256.14 108.53 261.70 102.70 C 264.48 99.98 265.94 96.34 266.67 92.58 Z" />
</g>
<g id="#004f7dff">
<path fill="#004f7d" opacity="1.00" d=" M 485.06 92.26 C 487.95 90.61 490.55 88.46 493.56 87.01 C 491.42 93.75 488.54 100.24 485.29 106.51 C 484.41 106.61 483.54 106.71 482.67 106.80 C 485.76 104.10 486.69 98.83 484.26 95.49 C 483.08 95.98 481.91 96.46 480.73 96.93 C 477.00 95.12 473.03 97.06 469.59 98.62 C 464.01 101.23 458.24 104.45 454.95 109.87 C 452.96 109.52 450.99 109.13 449.03 108.73 C 449.08 107.60 449.10 106.47 449.09 105.34 C 451.13 105.05 453.18 104.77 455.21 104.37 C 461.75 100.04 468.27 95.45 475.76 92.85 C 478.77 91.86 482.04 93.10 485.06 92.26 Z" />
</g>
<g id="#005d94ff">
<path fill="#005d94" opacity="1.00" d=" M 601.57 93.56 C 609.96 85.26 624.45 84.06 633.99 91.11 C 637.65 92.27 641.56 89.98 645.29 89.67 C 644.87 91.27 643.53 92.32 642.47 93.50 C 639.13 96.87 635.94 100.41 632.31 103.48 C 631.83 103.13 630.85 102.44 630.36 102.10 C 632.25 100.67 633.95 97.94 632.30 95.69 C 625.71 86.95 611.45 87.70 604.27 95.28 C 601.47 98.21 600.97 102.52 601.62 106.36 C 600.59 107.64 599.29 108.65 597.89 109.48 C 594.63 104.36 597.97 97.68 601.57 93.56 Z" />
</g>
<g id="#35b1e1ff">
<path fill="#35b1e1" opacity="1.00" d=" M 29.99 90.03 C 30.78 87.75 33.32 86.84 35.47 87.81 C 37.48 90.91 38.24 94.52 38.84 98.10 C 39.90 98.33 40.96 98.55 42.02 98.78 C 41.97 99.67 41.88 101.44 41.83 102.33 C 40.75 102.36 39.66 102.40 38.58 102.44 C 37.75 104.71 36.79 106.93 35.72 109.10 C 33.83 109.51 31.64 109.29 30.70 107.34 C 27.81 102.15 27.65 95.45 29.99 90.03 Z" />
</g>
<g id="#59973bff">
<path fill="#59973b" opacity="1.00" d=" M 217.77 94.77 C 219.71 91.88 221.73 88.56 225.38 87.72 C 224.89 89.33 224.46 90.97 224.27 92.65 C 222.23 93.68 220.11 94.76 217.77 94.77 Z" />
</g>
<g id="#004e7dff">
<path fill="#004e7d" opacity="1.00" d=" M 367.68 96.72 C 373.69 90.15 383.00 86.71 391.83 88.02 C 393.42 88.74 394.97 89.54 396.53 90.35 C 396.68 91.56 396.84 92.78 397.01 93.99 C 391.25 89.69 383.24 89.74 377.04 93.07 C 370.05 96.33 365.65 103.59 364.81 111.12 C 363.82 111.55 362.83 111.98 361.85 112.41 C 360.92 111.07 360.68 109.46 360.66 107.87 C 362.43 103.84 364.63 99.93 367.68 96.72 Z" />
</g>
<g id="#0068a5ff">
<path fill="#0068a5" opacity="1.00" d=" M 391.83 88.02 C 396.40 88.05 400.43 90.43 404.04 92.99 C 406.00 94.37 407.82 96.39 407.96 98.91 C 407.37 100.41 405.34 100.50 404.11 101.29 C 402.14 98.50 399.70 96.07 397.01 93.99 C 396.84 92.78 396.68 91.56 396.53 90.35 C 394.97 89.54 393.42 88.74 391.83 88.02 Z" />
<path fill="#0068a5" opacity="1.00" d=" M 497.81 154.84 C 499.16 153.45 500.54 152.10 501.98 150.79 C 505.80 152.44 508.35 155.81 511.02 158.85 C 509.46 158.73 507.44 157.74 506.25 159.24 C 505.60 160.12 505.01 161.04 504.47 162.00 C 502.01 159.84 499.76 157.46 497.81 154.84 Z" />
</g>
<g id="#005282ff">
<path fill="#005282" opacity="1.00" d=" M 514.75 92.74 C 522.48 87.19 532.96 85.98 541.90 89.01 C 543.03 89.96 544.12 90.95 545.22 91.93 C 544.64 92.36 543.47 93.22 542.88 93.65 C 535.72 89.40 526.28 88.58 519.01 93.00 C 510.00 98.30 505.68 108.97 505.01 119.02 C 503.42 118.93 501.84 118.85 500.26 118.77 C 500.50 116.46 500.72 114.15 501.01 111.84 C 503.14 104.13 508.25 97.34 514.75 92.74 Z" />
</g>
<g id="#289ad3ff">
<path fill="#289ad3" opacity="1.00" d=" M 138.86 93.47 C 140.34 91.81 141.41 89.05 144.05 89.18 C 142.33 92.47 139.20 94.66 137.07 97.65 C 133.25 99.44 130.68 102.88 127.42 105.43 C 123.14 108.89 118.80 112.27 114.30 115.45 C 112.62 114.01 111.78 111.88 111.25 109.79 C 111.72 107.07 112.83 104.33 112.13 101.55 L 112.07 101.16 C 116.25 92.24 129.23 90.43 136.25 97.01 C 136.46 95.40 136.70 93.80 137.00 92.20 C 137.46 92.52 138.39 93.15 138.86 93.47 Z" />
</g>
<g id="#005181ff">
<path fill="#005181" opacity="1.00" d=" M 449.63 94.68 C 452.53 92.19 455.67 89.78 459.47 88.87 C 457.66 91.72 455.89 94.68 455.22 98.04 C 452.90 98.73 450.48 98.74 448.13 98.21 C 448.03 96.84 448.43 95.47 449.63 94.68 Z" />
</g>
<g id="#0066a2ff">
<path fill="#0066a2" opacity="1.00" d=" M 541.90 89.01 C 548.52 89.87 554.35 94.32 558.01 99.79 C 556.69 101.09 555.31 102.32 553.86 103.46 C 550.88 99.51 547.14 96.16 542.88 93.65 C 543.47 93.22 544.64 92.36 545.22 91.93 C 544.12 90.95 543.03 89.96 541.90 89.01 Z" />
</g>
<g id="#4c8232ff">
<path fill="#4c8232" opacity="1.00" d=" M 249.60 93.07 C 253.86 91.12 259.68 88.44 263.76 92.14 C 262.98 93.03 262.18 93.90 261.47 94.84 C 257.89 92.63 253.59 93.14 249.60 93.07 Z" />
</g>
<g id="#538f37ff">
<path fill="#538f37" opacity="1.00" d=" M 195.36 92.74 C 200.41 90.33 206.28 90.69 211.26 93.08 C 211.37 93.56 211.58 94.52 211.69 94.99 C 210.50 95.83 209.32 96.66 208.14 97.50 C 204.74 94.16 199.93 93.16 195.36 92.74 Z" />
</g>
<g id="#00588bff">
<path fill="#00588b" opacity="1.00" d=" M 428.45 92.20 C 432.38 89.78 437.17 91.38 440.96 93.27 C 440.32 94.13 439.68 95.00 439.07 95.88 C 436.31 92.93 432.21 92.58 428.45 92.20 Z" />
<path fill="#00588b" opacity="1.00" d=" M 600.81 124.81 C 602.12 124.03 603.71 123.96 605.17 123.55 C 612.24 127.76 620.45 129.57 627.52 133.84 C 628.40 136.79 626.68 139.36 624.15 140.77 C 616.19 135.72 606.41 134.46 598.72 128.85 C 599.36 127.49 599.87 126.02 600.81 124.81 Z" />
</g>
<g id="#137bbeff">
<path fill="#137bbe" opacity="1.00" d=" M 138.16 103.54 C 142.31 100.17 146.82 97.25 150.71 93.57 C 151.69 98.04 152.53 103.01 150.26 107.25 C 148.36 111.18 142.80 109.72 139.95 107.80 C 139.36 106.38 138.76 104.96 138.16 103.54 Z" />
</g>
<g id="#65af43ff">
<path fill="#65af43" opacity="1.00" d=" M 211.26 93.08 C 213.32 94.00 215.44 94.99 217.77 94.77 C 220.11 94.76 222.23 93.68 224.27 92.65 C 225.88 95.09 227.40 97.60 228.85 100.14 C 227.15 101.83 225.33 103.43 223.07 104.32 C 221.22 101.76 219.98 98.44 216.93 97.04 C 217.20 100.40 219.79 102.81 221.29 105.65 C 225.66 113.36 231.50 120.12 235.77 127.88 C 233.65 129.15 231.46 130.30 229.25 131.40 C 221.26 120.74 215.58 108.52 208.14 97.50 C 209.32 96.66 210.50 95.83 211.69 94.99 C 211.58 94.52 211.37 93.56 211.26 93.08 Z" />
</g>
<g id="#0376bbff">
<path fill="#0376bb" opacity="1.00" d=" M 480.73 96.93 C 481.91 96.46 483.08 95.98 484.26 95.49 C 486.69 98.83 485.76 104.10 482.67 106.80 C 482.65 103.43 483.02 99.73 480.73 96.93 Z" />
</g>
<g id="#0084afff">
<path fill="#0084af" opacity="1.00" d=" M 127.42 105.43 C 130.68 102.88 133.25 99.44 137.07 97.65 C 135.76 100.34 133.47 102.29 131.37 104.35 C 131.37 105.69 131.38 107.04 131.39 108.39 C 126.60 111.72 121.69 114.85 116.69 117.86 C 114.03 119.44 111.31 120.93 108.57 122.36 C 103.46 125.07 98.40 128.02 92.90 129.85 C 92.52 129.74 91.75 129.51 91.37 129.40 C 96.25 127.00 100.87 124.12 105.46 121.21 C 108.59 119.59 111.44 117.50 114.30 115.45 C 118.80 112.27 123.14 108.89 127.42 105.43 Z" />
</g>
<g id="#069e79ff">
<path fill="#069e79" opacity="1.00" d=" M 3.01 127.64 C 8.38 117.48 16.53 109.11 25.13 101.62 C 20.04 108.73 13.95 115.74 12.46 124.67 C 11.34 129.68 13.59 135.41 18.27 137.78 C 26.04 141.93 35.24 140.55 43.62 139.63 C 46.73 139.16 50.01 138.82 52.67 136.98 C 57.46 137.25 61.83 134.79 66.22 133.21 C 69.92 131.74 73.58 130.13 77.38 128.91 C 78.52 128.56 79.48 127.86 80.38 127.10 C 88.29 123.21 95.81 118.58 103.63 114.54 C 95.61 121.69 86.25 127.15 76.98 132.53 C 71.29 135.56 65.38 138.18 59.77 141.36 C 48.49 145.27 37.23 149.81 25.23 151.00 C 22.55 149.17 19.52 147.95 16.83 146.17 C 10.88 141.15 5.65 135.07 3.01 127.64 Z" />
</g>
<g id="#1168b3ff">
<path fill="#1168b3" opacity="1.00" d=" M 38.58 102.44 C 39.66 102.40 40.75 102.36 41.83 102.33 C 41.27 105.58 39.66 109.30 35.72 109.10 C 36.79 106.93 37.75 104.71 38.58 102.44 Z" />
</g>
<g id="#00456dff">
<path fill="#00456d" opacity="1.00" d=" M 404.27 111.30 C 408.38 109.48 410.50 105.15 413.90 102.68 C 416.81 103.52 419.70 104.46 422.69 105.03 L 423.09 105.76 C 405.19 115.51 385.95 122.48 366.46 128.27 C 366.46 128.62 366.47 129.31 366.47 129.66 C 364.71 129.11 362.93 128.69 361.12 128.41 C 363.19 127.86 365.22 127.17 367.25 126.44 C 379.82 122.03 392.74 118.15 404.27 111.30 Z" />
</g>
<g id="#2588c7ff">
<path fill="#2588c7" opacity="1.00" d=" M 131.39 108.39 C 133.72 106.89 136.04 105.35 138.16 103.54 C 138.76 104.96 139.36 106.38 139.95 107.80 C 139.72 114.02 135.23 120.02 128.99 121.23 C 124.59 122.30 120.15 120.53 116.69 117.86 C 121.69 114.85 126.60 111.72 131.39 108.39 Z" />
<path fill="#2588c7" opacity="1.00" d=" M 101.61 137.60 C 106.00 135.23 109.74 131.87 114.14 129.51 C 116.59 135.38 114.80 142.85 109.33 146.35 C 103.89 150.16 95.65 148.42 92.16 142.78 C 94.93 140.42 98.56 139.53 101.61 137.60 Z" />
</g>
<g id="#00649fff">
<path fill="#00649f" opacity="1.00" d=" M 357.91 124.97 C 357.40 119.16 358.04 113.16 360.66 107.87 C 360.68 109.46 360.92 111.07 361.85 112.41 C 362.83 111.98 363.82 111.55 364.81 111.12 C 364.42 115.05 364.50 119.02 365.08 122.92 C 364.02 123.73 362.98 124.55 361.95 125.38 C 363.44 126.60 365.44 126.37 367.25 126.44 C 365.22 127.17 363.19 127.86 361.12 128.41 C 362.93 128.69 364.71 129.11 366.47 129.66 C 367.07 132.54 367.81 135.40 368.77 138.18 C 366.46 139.20 364.13 140.17 361.79 141.11 C 357.86 136.73 358.33 130.44 357.91 124.97 Z" />
<path fill="#00649f" opacity="1.00" d=" M 597.18 119.35 C 600.33 119.43 602.60 122.05 605.17 123.55 C 603.71 123.96 602.12 124.03 600.81 124.81 C 599.87 126.02 599.36 127.49 598.72 128.85 C 596.52 127.29 594.51 125.50 592.65 123.57 C 594.10 122.11 595.46 120.52 597.18 119.35 Z" />
</g>
<g id="#006098ff">
<path fill="#006098" opacity="1.00" d=" M 571.37 113.32 C 573.09 111.62 575.41 110.73 577.48 109.54 C 580.30 116.56 581.32 124.28 580.32 131.79 C 578.52 131.82 576.74 131.85 574.96 131.88 C 573.98 133.65 573.01 135.43 572.19 137.29 C 572.32 133.85 572.45 130.41 572.40 126.97 C 572.32 122.40 570.77 117.90 571.37 113.32 Z" />
</g>
<g id="#005f97ff">
<path fill="#005f97" opacity="1.00" d=" M 498.87 117.87 C 499.26 115.78 499.53 113.49 501.01 111.84 C 500.72 114.15 500.50 116.46 500.26 118.77 C 501.84 118.85 503.42 118.93 505.01 119.02 C 504.78 123.45 505.06 127.91 505.98 132.26 C 503.86 132.79 501.66 133.11 499.52 132.51 C 498.66 127.68 498.86 122.76 498.87 117.87 Z" />
</g>
<g id="#34aaddff">
<path fill="#34aadd" opacity="1.00" d=" M 50.60 127.32 C 51.56 122.78 54.95 119.33 59.05 117.38 C 61.76 117.98 64.57 118.09 67.27 117.38 C 70.10 118.54 73.03 119.80 75.16 122.06 C 76.42 124.14 76.78 126.60 77.38 128.91 C 73.58 130.13 69.92 131.74 66.22 133.21 C 60.95 132.44 55.78 131.18 50.74 129.48 C 50.71 128.94 50.64 127.86 50.60 127.32 Z" />
</g>
<g id="#0069a7ff">
<path fill="#0069a7" opacity="1.00" d=" M 499.46 138.67 C 498.25 131.88 496.60 124.58 498.87 117.87 C 498.86 122.76 498.66 127.68 499.52 132.51 C 501.66 133.11 503.86 132.79 505.98 132.26 C 506.78 135.91 507.94 139.49 509.49 142.90 C 507.76 144.20 505.79 145.10 503.87 146.05 C 502.03 143.85 499.92 141.62 499.46 138.67 Z" />
</g>
<g id="#35a5d9ff">
<path fill="#35a5d9" opacity="1.00" d=" M 90.25 128.93 C 91.89 122.77 99.54 118.15 105.46 121.21 C 100.87 124.12 96.25 127.00 91.37 129.40 L 90.25 128.93 Z" />
</g>
<g id="#2696d0ff">
<path fill="#2696d0" opacity="1.00" d=" M 92.90 129.85 C 98.40 128.02 103.46 125.07 108.57 122.36 C 110.84 124.40 112.67 126.85 114.14 129.51 C 109.74 131.87 106.00 135.23 101.61 137.60 C 98.56 139.53 94.93 140.42 92.16 142.78 L 92.02 142.90 C 89.94 139.49 89.51 135.48 89.82 131.58 C 88.42 132.16 87.00 132.72 85.50 133.00 C 86.78 131.99 88.24 131.26 89.71 130.59 C 89.85 130.17 90.11 129.34 90.25 128.93 L 91.37 129.40 C 91.75 129.51 92.52 129.74 92.90 129.85 Z" />
</g>
<g id="#299bd3ff">
<path fill="#299bd3" opacity="1.00" d=" M 36.09 127.08 C 35.72 124.92 37.82 123.93 39.38 123.09 C 42.83 124.66 45.83 126.97 48.49 129.65 C 49.24 129.58 49.99 129.53 50.74 129.48 C 55.78 131.18 60.95 132.44 66.22 133.21 C 61.83 134.79 57.46 137.25 52.67 136.98 C 50.01 138.82 46.73 139.16 43.62 139.63 C 40.21 136.14 36.49 132.20 36.09 127.08 Z" />
</g>
<g id="#0e78bcff">
<path fill="#0e78bc" opacity="1.00" d=" M 128.08 127.07 C 131.05 125.47 134.64 125.36 137.22 127.74 C 140.19 128.93 140.19 132.56 138.97 135.04 C 136.73 139.94 132.28 144.19 126.90 145.28 C 123.38 146.16 121.48 142.53 120.02 140.02 C 119.20 136.68 121.28 133.61 123.27 131.14 C 124.14 132.64 124.34 134.35 124.40 136.05 C 126.16 133.54 128.50 131.53 130.97 129.75 C 130.00 128.86 129.04 127.97 128.08 127.07 Z" />
</g>
<g id="#32a5d9ff">
<path fill="#32a5d9" opacity="1.00" d=" M 123.23 131.04 C 124.71 129.55 126.35 128.24 128.08 127.07 C 129.04 127.97 130.00 128.86 130.97 129.75 C 128.50 131.53 126.16 133.54 124.40 136.05 C 124.34 134.35 124.14 132.64 123.27 131.14 L 123.23 131.04 Z" />
</g>
<g id="#009984ff">
<path fill="#009984" opacity="1.00" d=" M 3.01 127.64 C 5.65 135.07 10.88 141.15 16.83 146.17 C 19.52 147.95 22.55 149.17 25.23 151.00 C 18.64 151.65 11.48 151.83 5.54 148.48 C 2.56 146.84 0.69 143.77 0.00 140.49 L 0.00 136.41 C 0.64 133.38 1.63 130.42 3.01 127.64 Z" />
</g>
<g id="#5ea23eff">
<path fill="#5ea23e" opacity="1.00" d=" M 234.08 133.69 C 235.38 132.01 237.07 130.65 239.33 131.19 C 240.78 135.78 244.34 139.12 247.19 142.84 C 252.72 150.22 259.97 156.04 266.11 162.88 C 264.55 162.59 262.90 161.76 261.31 162.27 C 260.20 163.40 259.53 164.87 258.71 166.21 C 248.44 158.68 240.65 148.36 233.44 137.99 C 234.53 136.76 236.99 134.49 234.08 133.69 Z" />
</g>
<g id="#004d7aff">
<path fill="#004d7a" opacity="1.00" d=" M 572.19 137.29 C 573.01 135.43 573.98 133.65 574.96 131.88 C 576.74 131.85 578.52 131.82 580.32 131.79 C 578.40 145.99 569.50 158.92 557.05 165.96 C 544.07 173.59 527.38 174.46 513.75 167.99 C 515.21 164.99 518.42 165.30 521.18 165.94 C 531.05 170.19 542.88 170.90 552.42 165.38 C 563.08 159.79 569.22 148.56 572.19 137.29 Z" />
</g>
<g id="#2799d2ff">
<path fill="#2799d2" opacity="1.00" d=" M 59.77 141.36 C 65.38 138.18 71.29 135.56 76.98 132.53 C 75.23 139.82 66.76 144.46 59.77 141.36 Z" />
</g>
<g id="#416e2bff">
<path fill="#416e2b" opacity="1.00" d=" M 214.95 153.93 C 221.50 147.34 227.28 140.03 234.08 133.69 C 236.99 134.49 234.53 136.76 233.44 137.99 C 227.02 144.98 220.71 152.07 214.45 159.20 C 213.65 160.20 212.82 161.44 211.40 160.54 C 210.75 157.69 213.25 155.77 214.95 153.93 Z" />
</g>
<g id="#006aa9ff">
<path fill="#006aa9" opacity="1.00" d=" M 627.52 133.84 C 630.03 135.19 632.09 137.59 634.92 138.19 C 637.21 137.22 639.21 135.70 641.28 134.34 C 641.99 135.81 642.66 137.30 643.25 138.83 C 640.94 139.33 638.69 140.04 636.52 140.97 C 636.80 142.97 637.06 144.98 637.20 147.00 C 636.41 146.20 635.62 145.41 634.85 144.61 C 633.37 145.38 631.88 146.12 630.34 146.71 L 630.20 147.10 C 628.78 144.48 626.51 142.52 624.15 140.77 C 626.68 139.36 628.40 136.79 627.52 133.84 Z" />
</g>
<g id="#005e95ff">
<path fill="#005e95" opacity="1.00" d=" M 636.52 140.97 C 638.69 140.04 640.94 139.33 643.25 138.83 C 643.58 140.86 643.78 142.91 643.79 144.97 C 642.26 145.12 640.74 145.27 639.23 145.42 C 638.52 148.01 637.99 150.64 637.20 153.21 C 637.27 151.14 637.26 149.07 637.20 147.00 C 637.06 144.98 636.80 142.97 636.52 140.97 Z" />
<path fill="#005e95" opacity="1.00" d=" M 506.25 159.24 C 507.44 157.74 509.46 158.73 511.02 158.85 C 514.14 161.57 517.79 163.57 521.18 165.94 C 518.42 165.30 515.21 164.99 513.75 167.99 C 510.43 166.37 507.33 164.33 504.47 162.00 C 505.01 161.04 505.60 160.12 506.25 159.24 Z" />
</g>
<g id="#1d82c3ff">
<path fill="#1d82c3" opacity="1.00" d=" M 76.11 147.28 C 78.58 144.45 82.75 144.60 86.18 144.83 C 85.36 145.75 84.58 146.73 83.63 147.53 C 82.13 148.40 80.13 147.86 78.73 148.98 C 82.57 149.29 86.43 149.19 90.28 149.23 C 89.90 147.94 89.52 146.65 89.15 145.36 C 91.66 146.42 94.54 147.42 95.93 149.98 C 96.30 152.77 97.65 156.76 94.52 158.48 C 90.18 160.85 84.80 160.29 80.31 158.64 C 77.84 157.57 74.90 155.97 74.48 153.03 C 74.77 151.06 75.34 149.12 76.11 147.28 Z" />
</g>
<g id="#3ca5d8ff">
<path fill="#3ca5d8" opacity="1.00" d=" M 86.18 144.83 C 87.16 145.02 88.15 145.19 89.15 145.36 C 89.52 146.65 89.90 147.94 90.28 149.23 C 86.43 149.19 82.57 149.29 78.73 148.98 C 80.13 147.86 82.13 148.40 83.63 147.53 C 84.58 146.73 85.36 145.75 86.18 144.83 Z" />
</g>
<g id="#00507fff">
<path fill="#00507f" opacity="1.00" d=" M 639.23 145.42 C 640.74 145.27 642.26 145.12 643.79 144.97 C 643.21 154.32 637.85 163.19 629.40 167.41 C 614.47 175.24 596.40 172.17 581.54 165.74 C 584.81 165.18 588.39 162.27 591.60 164.29 C 601.92 170.12 615.20 171.30 625.99 166.02 C 631.30 163.53 635.16 158.63 637.20 153.21 C 637.99 150.64 638.52 148.01 639.23 145.42 Z" />
</g>
<g id="#005d95ff">
<path fill="#005d95" opacity="1.00" d=" M 367.30 157.38 C 368.58 157.33 369.84 157.62 371.10 157.87 C 374.68 160.97 379.00 162.98 383.18 165.11 C 381.23 164.83 379.28 164.63 377.33 164.42 C 376.42 166.24 375.57 168.08 374.77 169.96 C 370.34 168.03 366.27 165.35 362.71 162.09 C 364.15 160.45 365.46 158.62 367.30 157.38 Z" />
</g>
<g id="#4e8633ff">
<path fill="#4e8633" opacity="1.00" d=" M 261.31 162.27 C 262.90 161.76 264.55 162.59 266.11 162.88 C 270.70 166.16 275.77 169.27 281.48 169.94 C 281.83 170.31 282.53 171.04 282.87 171.41 C 274.51 173.89 265.59 171.19 258.71 166.21 C 259.53 164.87 260.20 163.40 261.31 162.27 Z" />
</g>
<g id="#004a76ff">
<path fill="#004a76" opacity="1.00" d=" M 310.16 163.05 C 311.10 162.77 312.06 162.52 313.02 162.28 C 314.57 163.33 316.15 164.36 317.86 165.15 C 325.63 167.96 334.29 168.73 342.19 165.95 C 339.41 167.82 336.62 170.50 333.01 170.12 C 320.69 170.15 308.36 170.69 296.04 170.58 C 296.48 170.30 296.88 170.00 297.24 169.68 C 302.25 169.83 306.44 166.01 310.16 163.05 Z" />
<path fill="#004a76" opacity="1.00" d=" M 434.26 168.69 C 439.42 169.08 443.15 164.50 447.28 162.06 C 448.33 162.47 449.39 162.88 450.44 163.30 C 457.04 166.07 464.62 168.93 471.70 166.19 C 470.36 167.55 468.98 169.35 466.88 169.19 C 455.61 169.55 444.34 169.94 433.07 169.61 C 433.33 169.38 433.84 168.91 434.10 168.68 L 434.26 168.69 Z" />
</g>
<g id="#004b78ff">
<path fill="#004b78" opacity="1.00" d=" M 401.99 167.09 C 408.16 166.71 413.66 163.82 419.47 162.07 C 407.51 172.58 389.61 176.16 374.77 169.96 C 375.57 168.08 376.42 166.24 377.33 164.42 C 379.28 164.63 381.23 164.83 383.18 165.11 C 389.29 166.74 395.66 167.93 401.99 167.09 Z" />
</g>
<g id="#42722cff">
<path fill="#42722c" opacity="1.00" d=" M 196.42 170.25 C 200.31 167.60 204.69 165.79 209.07 164.13 C 213.81 166.94 219.11 168.66 224.67 168.55 C 221.39 170.44 217.57 169.59 213.99 169.72 C 208.12 169.68 202.28 170.08 196.42 170.25 Z" />
</g>
</svg>
